<?xml version="1.0" standalone="no"?>
<!DOCTYPE svg PUBLIC "-//W3C//DTD SVG 1.0//EN" "http://www.w3.org/TR/2001/REC-SVG-20010904/DTD/svg10.dtd">
<svg xmlns="http://www.w3.org/2000/svg" xmlns:xlink="http://www.w3.org/1999/xlink" id="body_1" width="24" height="24">

<defs>
    <clipPath  id="1">

    <path id=""  clip-rule="evenodd" transform="matrix(1 0 0 1 0 0)"  d="M0 -0.75L18.75 -0.75L18.75 -0.75L18.75 18L18.75 18L1.1481065E-15 18L1.1481065E-15 18L0 -0.75z" />    </clipPath>
</defs>

<g transform="matrix(1.3333 0 0 1.3333 0 0)">
	<g clip-path="url(#1)" >
    <path id=""  transform="matrix(1 0 0 -1 0 18)"  d="M9.375 0.5625C 11.808504 0.5625 13.885631 1.4228745 15.606379 3.1436214L15.606379 3.1436214L15.606379 3.1436214C 17.327126 4.8643684 18.1875 6.941495 18.1875 9.375L18.1875 9.375L18.1875 9.375C 18.1875 11.808504 17.327126 13.885631 15.606379 15.606379L15.606379 15.606379L15.606379 15.606379C 13.885631 17.327126 11.808504 18.1875 9.375 18.1875L9.375 18.1875L9.375 18.1875C 6.941495 18.1875 4.8643684 17.327126 3.1436214 15.606379L3.1436214 15.606379L3.1436214 15.606379C 1.4228745 13.885631 0.5625 11.808504 0.5625 9.375L0.5625 9.375L0.5625 9.375C 0.5625 6.941495 1.4228745 4.8643684 3.1436214 3.1436214L3.1436214 3.1436214L3.1436214 3.1436214C 4.8643684 1.4228745 6.941495 0.5625 9.375 0.5625" stroke="#C09068" stroke-width="1.125" fill="#FFFFFF" fill-rule="evenodd" />
    <path id=""  transform="matrix(1 0 0 -1 0 18)"  d="M10.5 12.75L10.5 12.75L10.5 12.75L6.75 9.375L6.75 9.375L10.5 6" stroke="#C09068" stroke-width="1.125" stroke-linecap="square" fill="none" />
	</g>
</g>
</svg>