<svg width="88" height="27" viewBox="0 0 88 27" fill="none" xmlns="http://www.w3.org/2000/svg">
<g clip-path="url(#clip0)">
<rect width="207" height="99" transform="translate(-71 -6)" fill="white"/>
<path d="M799.285 14.8477L799.467 15.1292C799.467 15.223 799.597 15.3436 799.675 15.4776L799.792 15.7055C799.836 15.792 799.875 15.8815 799.908 15.9735C800.093 16.442 800.189 16.9422 800.194 17.4478C800.193 17.7584 800.163 18.0681 800.103 18.3725C800.028 18.7154 799.915 19.0482 799.766 19.3643C799.427 20.089 798.923 20.7189 798.299 21.2004C797.597 21.7503 796.751 22.068 795.871 22.1118H794.833L794.482 22.018C794.018 21.862 793.58 21.6313 793.184 21.3344C792.308 20.6504 791.64 19.7197 791.263 18.654C791.051 18.077 790.915 17.4728 790.861 16.8581C790.78 16.2175 790.78 15.5687 790.861 14.9281C790.861 14.7673 790.861 14.6065 790.952 14.4456V14.0168L791.042 13.7487V13.5209C791.096 13.3791 791.156 13.2404 791.224 13.1054C791.536 12.4919 791.92 11.9203 792.367 11.4033C792.838 10.8554 793.364 10.3612 793.937 9.92907C794.08 9.82185 794.223 9.70122 794.379 9.60741L795.105 9.19194L795.586 8.91048L795.832 8.77647L796.092 8.65585C796.777 8.31848 797.489 8.04488 798.221 7.83831L798.779 7.70428L799.065 7.63726H799.35L799.934 7.53004H800.518C802.139 7.37106 803.773 7.44775 805.373 7.75788C807.041 8.08003 808.672 8.57855 810.241 9.24554L810.838 9.48679L811.422 9.76823L812.02 10.0497L812.318 10.1837L812.604 10.3445L813.772 10.9611L814.914 11.6446L815.485 11.993L816.044 12.3549L817.16 13.092L818.25 13.8694L818.796 14.2714L819.328 14.6869L820.379 15.5178L821.431 16.3622C821.781 16.6436 822.145 16.9117 822.508 17.1931L823.053 17.5952L823.598 17.9839C825.056 19.0292 826.573 19.9825 828.142 20.8386C829.695 21.6834 831.315 22.3917 832.984 22.9561C833.811 23.2253 834.652 23.449 835.502 23.6262L836.138 23.7469L836.774 23.8541C837.202 23.8541 837.631 23.9613 838.072 23.9881C838.513 24.0149 838.929 23.9881 839.37 23.9881C839.811 23.9881 840.227 23.9881 840.668 23.9881C841.511 23.936 842.348 23.8196 843.174 23.6396C844.78 23.2816 846.324 22.6762 847.756 21.8437C848.454 21.4379 849.114 20.9668 849.729 20.4365C850.337 19.9126 850.886 19.3191 851.364 18.6674C852.308 17.3952 852.876 15.8687 853 14.2714V13.99C853 13.8962 853 13.8023 853 13.7085C853 13.6147 853 13.3332 853 13.1456C852.969 12.7764 852.917 12.4094 852.844 12.0466V11.4837L852.701 11.0147L852.468 10.4652L852.208 9.98267C851.686 9.13989 850.95 8.46082 850.08 8.01903C849.211 7.57724 848.241 7.38959 847.275 7.47644H846.847L846.445 7.57025H846.042L845.653 7.74448C845.178 7.98716 844.765 8.34047 844.446 8.77647C844.156 9.1758 843.949 9.63182 843.836 10.1167C843.733 10.5323 843.706 10.9642 843.758 11.3899V11.6848C843.758 11.7786 843.758 11.8724 843.823 11.9528V12.2075C843.857 12.2944 843.896 12.3794 843.939 12.4621C844.218 12.9824 844.685 13.3679 845.237 13.5343C845.561 13.6177 845.9 13.6177 846.224 13.5343H846.536H846.211C845.903 13.5314 845.601 13.4533 845.328 13.3065C845.092 13.1826 844.885 13.0069 844.721 12.7916C844.557 12.5763 844.441 12.3266 844.381 12.06V11.8724C844.381 11.792 844.381 11.725 844.381 11.6446V11.4033C844.392 11.0683 844.458 10.7376 844.575 10.4249C844.704 10.0841 844.898 9.77399 845.147 9.5136C845.406 9.23776 845.721 9.02292 846.068 8.88369C846.157 8.8467 846.248 8.81536 846.341 8.78986H847.029C847.47 8.79153 847.908 8.86387 848.327 9.00431C849.261 9.3203 850.05 9.97817 850.547 10.8538L850.728 11.2023L850.858 11.5373L850.988 12.0064V12.4085C851.039 12.701 851.074 12.9963 851.092 13.293C851.092 13.4405 851.092 13.5879 851.092 13.7487C851.092 13.9095 851.092 13.8962 851.092 13.9766V14.2044C851.099 14.3562 851.099 14.5083 851.092 14.6601L851.014 15.1158C850.942 15.4209 850.851 15.7209 850.741 16.0137C850.511 16.6234 850.206 17.2 849.833 17.7292C849.45 18.2817 849.015 18.7935 848.535 19.2571C848.005 19.7578 847.431 20.2064 846.821 20.5973C844.167 22.2415 841.114 23.0692 838.02 22.9829C836.366 22.9481 834.723 22.7051 833.126 22.2592C831.475 21.7938 829.871 21.1655 828.336 20.3829C826.765 19.5874 825.255 18.6688 823.819 17.6354L823.274 17.2467L822.742 16.8447C822.391 16.5766 822.028 16.3086 821.69 16.0137L819.6 14.2982L819.081 13.8694L818.536 13.4539L817.458 12.6229L816.355 11.8322L815.797 11.4435L815.226 11.0683C813.731 10.0625 812.169 9.16681 810.553 8.38779C808.946 7.60408 807.268 6.98896 805.542 6.55168C803.844 6.12355 802.096 5.94311 800.35 6.01559H799.701L799.052 6.09601H798.403L797.767 6.23002C796.926 6.42893 796.105 6.70709 795.313 7.06097L795.015 7.19498L794.729 7.34241L794.158 7.65068L793.613 7.98574C793.431 8.09296 793.262 8.22696 793.081 8.34758C792.392 8.84363 791.757 9.41424 791.185 10.0497C790.614 10.6826 790.125 11.39 789.731 12.1539C789.625 12.358 789.529 12.5683 789.446 12.7837L789.381 12.9446V13.0786L789.29 13.3467V13.6415L789.212 13.9498C789.212 14.1508 789.134 14.3518 789.108 14.5663C788.862 16.1572 789.037 17.7872 789.615 19.2839C790.15 20.6908 791.088 21.8966 792.302 22.7417C792.878 23.1282 793.515 23.4093 794.184 23.5726C794.353 23.5726 794.508 23.653 794.677 23.6664H796.118C796.719 23.5931 797.304 23.4116 797.844 23.1303C798.515 22.7845 799.111 22.3041 799.599 21.7172C800.087 21.1304 800.457 20.449 800.687 19.7128C800.806 19.3164 800.88 18.9071 800.908 18.4931C800.945 18.1368 800.945 17.7773 800.908 17.421C800.808 16.8741 800.61 16.3514 800.324 15.8797L800.155 15.6251L799.986 15.4106L799.714 15.1024L799.285 14.8477Z" fill="#C09068"/>
<path d="M58.7147 14.8477L58.533 15.1292C58.533 15.223 58.4031 15.3436 58.3253 15.4776L58.2084 15.7055C58.1637 15.792 58.1246 15.8815 58.0916 15.9735C57.9075 16.442 57.8106 16.9422 57.806 17.4478C57.8069 17.7584 57.8374 18.0681 57.8969 18.3725C57.9722 18.7154 58.0854 19.0482 58.2344 19.3643C58.5735 20.089 59.0766 20.7189 59.7012 21.2004C60.4027 21.7503 61.2489 22.068 62.1286 22.1118H63.1671L63.5176 22.018C63.9824 21.862 64.4205 21.6313 64.8157 21.3344C65.6925 20.6504 66.3596 19.7197 66.7368 18.654C66.9495 18.077 67.0849 17.4728 67.1392 16.8581C67.22 16.2175 67.22 15.5687 67.1392 14.9281C67.1392 14.7673 67.1392 14.6065 67.0484 14.4456V14.0168L66.9575 13.7487V13.5209C66.9043 13.3791 66.8437 13.2404 66.7758 13.1054C66.4639 12.4919 66.0802 11.9203 65.6335 11.4033C65.1624 10.8554 64.6358 10.3612 64.0628 9.92907C63.92 9.82185 63.7772 9.70122 63.6214 9.60741L62.8945 9.19194L62.4142 8.91048L62.1676 8.77647L61.908 8.65585C61.2233 8.31848 60.5109 8.04488 59.7791 7.83831L59.2209 7.70428L58.9354 7.63726H58.6498L58.0656 7.53004H57.4815C55.8609 7.37106 54.2266 7.44775 52.6267 7.75788C50.9589 8.08003 49.3277 8.57855 47.7589 9.24554L47.1617 9.48679L46.5776 9.76823L45.9805 10.0497L45.6819 10.1837L45.3963 10.3445L44.2281 10.9611L43.0858 11.6446L42.5146 11.993L41.9564 12.3549L40.8401 13.092L39.7497 13.8694L39.2045 14.2714L38.6723 14.6869L37.6208 15.5178L36.5694 16.3622C36.2189 16.6436 35.8554 16.9117 35.492 17.1931L34.9468 17.5952L34.4016 17.9839C32.9443 19.0292 31.4271 19.9825 29.8583 20.8386C28.3047 21.6834 26.6851 22.3917 25.0165 22.9561C24.1891 23.2253 23.3485 23.449 22.4982 23.6262L21.8621 23.7469L21.226 23.8541C20.7977 23.8541 20.3693 23.9613 19.928 23.9881C19.4866 24.0149 19.0712 23.9881 18.6299 23.9881C18.1885 23.9881 17.7731 23.9881 17.3318 23.9881C16.4895 23.936 15.6521 23.8196 14.8265 23.6396C13.2205 23.2816 11.6758 22.6762 10.2443 21.8437C9.54631 21.4379 8.88585 20.9668 8.27117 20.4365C7.66287 19.9126 7.11417 19.3191 6.6356 18.6674C5.69189 17.3952 5.12394 15.8687 5 14.2714V13.99C5 13.8962 5 13.8023 5 13.7085C5 13.6147 5 13.3332 5 13.1456C5.03058 12.7764 5.08261 12.4094 5.15578 12.0466V11.4837L5.29857 11.0147L5.53222 10.4652L5.79183 9.98267C6.31419 9.13989 7.05002 8.46082 7.91954 8.01903C8.78906 7.57724 9.75911 7.38959 10.7246 7.47644H11.1529L11.5553 7.57025H11.9577L12.3472 7.74448C12.8216 7.98716 13.2349 8.34047 13.5544 8.77647C13.8438 9.1758 14.0514 9.63182 14.1645 10.1167C14.2673 10.5323 14.2937 10.9642 14.2424 11.3899V11.6848C14.2424 11.7786 14.2424 11.8724 14.1775 11.9528V12.2075C14.1429 12.2944 14.1039 12.3794 14.0606 12.4621C13.782 12.9824 13.3154 13.3679 12.7626 13.5343C12.4387 13.6177 12.0999 13.6177 11.776 13.5343H11.4645H11.789C12.0965 13.5314 12.399 13.4533 12.6717 13.3065C12.9081 13.1826 13.1155 13.0069 13.2792 12.7916C13.4429 12.5763 13.5589 12.3266 13.6193 12.06V11.8724C13.6193 11.792 13.6193 11.725 13.6193 11.6446V11.4033C13.6077 11.0683 13.5419 10.7376 13.4246 10.4249C13.2964 10.0841 13.102 9.77399 12.8534 9.5136C12.5935 9.23776 12.2792 9.02292 11.9318 8.88369C11.8429 8.8467 11.7518 8.81536 11.6592 8.78986H10.9712C10.5304 8.79153 10.0924 8.86387 9.67311 9.00431C8.73929 9.3203 7.94974 9.97817 7.45338 10.8538L7.27165 11.2023L7.14185 11.5373L7.01203 12.0064V12.4085C6.96063 12.701 6.92595 12.9963 6.90818 13.293C6.90818 13.4405 6.90818 13.5879 6.90818 13.7487C6.90818 13.9095 6.90818 13.8962 6.90818 13.9766V14.2044C6.90051 14.3562 6.90051 14.5083 6.90818 14.6601L6.98607 15.1158C7.05772 15.4209 7.14879 15.7209 7.25867 16.0137C7.48901 16.6234 7.7944 17.2 8.16733 17.7292C8.54987 18.2817 8.98471 18.7935 9.46541 19.2571C9.99503 19.7578 10.5687 20.2064 11.1789 20.5973C13.8327 22.2415 16.8861 23.0692 19.9799 22.9829C21.6336 22.9481 23.277 22.7051 24.8737 22.2592C26.5249 21.7938 28.1289 21.1655 29.6636 20.3829C31.235 19.5874 32.7452 18.6688 34.1809 17.6354L34.7261 17.2467L35.2583 16.8447C35.6088 16.5766 35.9723 16.3086 36.3098 16.0137L38.3997 14.2982L38.9189 13.8694L39.4641 13.4539L40.5415 12.6229L41.6449 11.8322L42.2031 11.4435L42.7742 11.0683C44.269 10.0625 45.8306 9.16681 47.4473 8.38779C49.0538 7.60408 50.7324 6.98896 52.4579 6.55168C54.156 6.12355 55.9037 5.94311 57.6503 6.01559H58.2993L58.9483 6.09601H59.5974L60.2334 6.23002C61.0741 6.42893 61.8954 6.70709 62.6868 7.06097L62.9854 7.19498L63.271 7.34241L63.8421 7.65068L64.3873 7.98574C64.569 8.09296 64.7378 8.22696 64.9195 8.34758C65.6082 8.84363 66.2435 9.41424 66.8147 10.0497C67.3862 10.6826 67.8749 11.39 68.2686 12.1539C68.3754 12.358 68.4708 12.5683 68.5542 12.7837L68.6191 12.9446V13.0786L68.7099 13.3467V13.6415L68.7878 13.9498C68.7878 14.1508 68.8657 14.3518 68.8917 14.5663C69.1377 16.1572 68.9628 17.7872 68.3854 19.2839C67.8495 20.6908 66.9125 21.8966 65.6984 22.7417C65.1219 23.1282 64.4851 23.4093 63.8162 23.5726C63.6474 23.5726 63.4916 23.653 63.3229 23.6664H61.882C61.2806 23.5931 60.6964 23.4116 60.1556 23.1303C59.4854 22.7845 58.8888 22.3041 58.4007 21.7172C57.9126 21.1304 57.5427 20.449 57.3128 19.7128C57.1937 19.3164 57.1197 18.9071 57.0921 18.4931C57.0551 18.1368 57.0551 17.7773 57.0921 17.421C57.192 16.8741 57.3901 16.3514 57.6762 15.8797L57.845 15.6251L58.0137 15.4106L58.2863 15.1024L58.7147 14.8477Z" fill="#C09068"/>
<path d="M850.876 17.2536C850.664 17.5522 850.432 17.8359 850.18 18.1024C849.476 18.8539 848.69 19.5254 847.834 20.1042C846.514 21.0108 845.063 21.7156 843.529 22.1946C842.59 22.4853 841.629 22.7014 840.655 22.8407C840.397 22.8407 840.139 22.9167 839.868 22.9421L839.056 23.0054C838.515 23.0054 837.948 23.0054 837.381 23.0054C836.814 23.0054 836.234 23.0054 835.641 22.9168C835.048 22.8281 834.455 22.8027 833.836 22.6887C833.217 22.5747 832.612 22.4733 831.993 22.3466C831.684 22.3466 831.374 22.1946 831.065 22.1186C830.756 22.0426 830.433 21.9666 830.124 21.8652L829.17 21.5865H828.964L828.719 21.4978L828.242 21.3331C827.585 21.1177 826.953 20.8643 826.335 20.6236C825.046 20.0915 823.757 19.5214 822.468 18.8626L821.991 18.6219L821.514 18.3558L820.56 17.8364C819.929 17.469 819.271 17.1016 818.666 16.7215C817.377 15.9486 816.152 15.1378 814.889 14.3017C812.311 12.642 809.824 10.8683 807.155 9.23395C805.867 8.42312 804.462 7.63763 803.057 6.94082C801.649 6.23183 800.189 5.63036 798.687 5.14176C797.196 4.65293 795.659 4.30921 794.099 4.11556C792.565 3.96148 791.018 3.96148 789.484 4.11556L788.363 4.25492C788.17 4.25492 787.989 4.25493 787.809 4.34361L787.255 4.44497L786.713 4.54633H786.43L786.172 4.60966C785.837 4.68567 785.463 4.79971 785.115 4.90106C784.424 5.11244 783.744 5.35767 783.078 5.63586C782.424 5.91624 781.788 6.2335 781.171 6.58606C779.975 7.26972 778.889 8.12359 777.948 9.11991C777.069 10.0687 776.359 11.1567 775.848 12.3379C775.384 13.426 775.105 14.5816 775.023 15.7586C774.949 16.8155 775.054 17.8771 775.332 18.9006C775.735 20.5978 776.74 22.0982 778.168 23.1321C778.706 23.4938 779.31 23.7518 779.946 23.8923C780.411 23.994 780.89 24.0239 781.364 23.981C781.651 23.958 781.936 23.9113 782.215 23.8416L782.498 23.7656C782.533 23.761 782.565 23.7461 782.59 23.7229C782.616 23.6997 782.633 23.6693 782.64 23.636C782.647 23.6026 782.643 23.5679 782.63 23.5367C782.616 23.5055 782.593 23.4792 782.563 23.4615H782.292C782.026 23.4811 781.759 23.4811 781.493 23.4615C780.51 23.4204 779.57 23.0543 778.825 22.4226C777.699 21.4286 776.949 20.0888 776.698 18.6219C776.343 16.7095 776.614 14.7358 777.472 12.984C777.956 11.9937 778.6 11.0867 779.379 10.2982C780.225 9.45105 781.188 8.72593 782.241 8.14439C783.372 7.52421 784.57 7.02718 785.811 6.66209C786.133 6.57341 786.43 6.48471 786.778 6.39603L787.035 6.33268H787.28L788.286 6.12998L788.788 6.04129L789.819 5.90193C791.221 5.76202 792.633 5.76202 794.034 5.90193C795.475 6.07327 796.895 6.38303 798.275 6.82678C799.695 7.2799 801.078 7.83898 802.412 8.49913C803.766 9.15793 805.093 9.89274 806.408 10.6656C808.986 12.2239 811.564 13.9469 814.141 15.5939C815.43 16.4174 816.719 17.2156 818.008 17.9631C818.653 18.3432 819.297 18.6979 819.967 19.0653L820.947 19.5847L821.437 19.8381L821.939 20.0788C823.232 20.7192 824.557 21.2943 825.909 21.8019C826.579 22.0426 827.198 22.2833 827.907 22.4733L828.642 22.7014H828.848L829.84 22.9548C830.163 23.0435 830.498 23.1068 830.82 23.1828C831.142 23.2588 831.465 23.3348 831.787 23.3855C832.431 23.4995 833.076 23.6136 833.707 23.6769C834.339 23.7403 834.996 23.8036 835.576 23.8416C836.156 23.8796 836.801 23.8416 837.394 23.8416C837.986 23.8416 838.566 23.8416 839.134 23.7403L839.971 23.6389C840.242 23.6389 840.513 23.5502 840.783 23.4995C841.789 23.317 842.776 23.05 843.735 22.7014C845.292 22.1376 846.753 21.3429 848.066 20.3449C848.903 19.7042 849.663 18.9733 850.334 18.1658C850.574 17.8812 850.794 17.5807 850.992 17.2663C851 17.2511 851.002 17.2333 850.997 17.2167C850.993 17.2 850.981 17.186 850.966 17.1776C850.95 17.1692 850.932 17.1671 850.915 17.1719C850.898 17.1766 850.884 17.1878 850.876 17.2029V17.2536Z" fill="#C09068"/>
<path d="M7.12435 17.2536C7.33581 17.5522 7.56838 17.8359 7.82036 18.1024C8.52357 18.8539 9.31046 19.5254 10.1662 20.1042C11.4855 21.0108 12.937 21.7156 14.4712 22.1946C15.4101 22.4853 16.3713 22.7014 17.3455 22.8407C17.6033 22.8407 17.8611 22.9167 18.1317 22.9421L18.9438 23.0054C19.4851 23.0054 20.0522 23.0054 20.6194 23.0054C21.1865 23.0054 21.7665 23.0054 22.3594 22.9168C22.9523 22.8281 23.5452 22.8027 24.1639 22.6887C24.7826 22.5747 25.3884 22.4733 26.007 22.3466C26.3164 22.3466 26.6257 22.1946 26.9351 22.1186C27.2444 22.0426 27.5666 21.9666 27.876 21.8652L28.8298 21.5865H29.036L29.2809 21.4978L29.7578 21.3331C30.4151 21.1177 31.0467 20.8643 31.6654 20.6236C32.9543 20.0915 34.2432 19.5214 35.5322 18.8626L36.0091 18.6219L36.486 18.3558L37.4398 17.8364C38.0713 17.469 38.7287 17.1016 39.3345 16.7215C40.6234 15.9486 41.8479 15.1378 43.111 14.3017C45.6889 12.642 48.1765 10.8683 50.8446 9.23395C52.1335 8.42312 53.5384 7.63763 54.9433 6.94082C56.3507 6.23183 57.8115 5.63036 59.3128 5.14176C60.8044 4.65293 62.3413 4.30921 63.9013 4.11556C65.4354 3.96148 66.9815 3.96148 68.5157 4.11556L69.637 4.25492C69.8304 4.25492 70.0108 4.25493 70.1913 4.34361L70.7455 4.44497L71.2868 4.54633H71.5704L71.8282 4.60966C72.1633 4.68567 72.5371 4.79971 72.8851 4.90106C73.576 5.11244 74.2557 5.35767 74.9216 5.63586C75.5755 5.91624 76.2125 6.2335 76.8292 6.58606C78.0247 7.26972 79.1105 8.12359 80.0515 9.11991C80.9311 10.0687 81.6414 11.1567 82.1524 12.3379C82.6164 13.426 82.8951 14.5816 82.9773 15.7586C83.0505 16.8155 82.946 17.8771 82.668 18.9006C82.2652 20.5978 81.2598 22.0982 79.8324 23.1321C79.2938 23.4938 78.6902 23.7518 78.0537 23.8923C77.5886 23.994 77.1103 24.0239 76.6359 23.981C76.3488 23.958 76.0643 23.9113 75.7852 23.8416L75.5016 23.7656C75.4673 23.761 75.4352 23.7461 75.4098 23.7229C75.3845 23.6997 75.3671 23.6693 75.36 23.636C75.3529 23.6026 75.3565 23.5679 75.3704 23.5367C75.3842 23.5055 75.4075 23.4792 75.4372 23.4615H75.7078C75.9738 23.4811 76.241 23.4811 76.507 23.4615C77.49 23.4204 78.43 23.0543 79.175 22.4226C80.3009 21.4286 81.0506 20.0888 81.3018 18.6219C81.6566 16.7095 81.3858 14.7358 80.5284 12.984C80.0437 11.9937 79.3996 11.0867 78.6208 10.2982C77.7752 9.45105 76.8119 8.72593 75.7594 8.14439C74.6276 7.52421 73.4305 7.02718 72.1891 6.66209C71.8669 6.57341 71.5704 6.48471 71.2224 6.39603L70.9646 6.33268H70.7197L69.7143 6.12998L69.2117 6.04129L68.1805 5.90193C66.7792 5.76202 65.3671 5.76202 63.9658 5.90193C62.5249 6.07327 61.1046 6.38303 59.7252 6.82678C58.3048 7.2799 56.9216 7.83898 55.5878 8.49913C54.2344 9.15793 52.9068 9.89274 51.5921 10.6656C49.0143 12.2239 46.4364 13.9469 43.8586 15.5939C42.5697 16.4174 41.2808 17.2156 39.9918 17.9631C39.3474 18.3432 38.7029 18.6979 38.0327 19.0653L37.0531 19.5847L36.5633 19.8381L36.0606 20.0788C34.768 20.7192 33.443 21.2943 32.0907 21.8019C31.4205 22.0426 30.8018 22.2833 30.0929 22.4733L29.3582 22.7014H29.152L28.1595 22.9548C27.8373 23.0435 27.5022 23.1068 27.18 23.1828C26.8577 23.2588 26.5355 23.3348 26.2133 23.3855C25.5688 23.4995 24.9244 23.6136 24.2928 23.6769C23.6612 23.7403 23.0039 23.8036 22.4238 23.8416C21.8438 23.8796 21.1994 23.8416 20.6065 23.8416C20.0136 23.8416 19.4335 23.8416 18.8664 23.7403L18.0286 23.6389C17.758 23.6389 17.4873 23.5502 17.2166 23.4995C16.2113 23.317 15.2238 23.05 14.265 22.7014C12.7075 22.1376 11.247 21.3429 9.93419 20.3449C9.09748 19.7042 8.33656 18.9733 7.66569 18.1658C7.42569 17.8812 7.20605 17.5807 7.00835 17.2663C6.99981 17.2511 6.99772 17.2333 7.00255 17.2167C7.00738 17.2 7.01873 17.186 7.03412 17.1776C7.0495 17.1692 7.06766 17.1671 7.08458 17.1719C7.1015 17.1766 7.1158 17.1878 7.12435 17.2029V17.2536Z" fill="#C09068"/>
</g>
<defs>
<clipPath id="clip0">
<rect width="207" height="99" fill="white" transform="translate(-71 -6)"/>
</clipPath>
</defs>
</svg>
