<svg width="88" height="27" viewBox="0 0 88 27" fill="none" xmlns="http://www.w3.org/2000/svg">
<g clip-path="url(#clip0)">
<rect width="207" height="99" transform="translate(-79 -36)" fill="white"/>
<path d="M28.2853 14.8477L28.467 15.1292C28.467 15.223 28.5969 15.3436 28.6747 15.4776L28.7916 15.7055C28.8363 15.792 28.8754 15.8815 28.9084 15.9735C29.0925 16.442 29.1894 16.9422 29.194 17.4478C29.1931 17.7584 29.1626 18.0681 29.1031 18.3725C29.0278 18.7154 28.9146 19.0482 28.7656 19.3643C28.4266 20.089 27.9234 20.7189 27.2988 21.2004C26.5973 21.7503 25.751 22.068 24.8713 22.1118H23.8329L23.4824 22.018C23.0176 21.862 22.5795 21.6313 22.1843 21.3344C21.3075 20.6504 20.6405 19.7197 20.2632 18.654C20.0505 18.077 19.9151 17.4728 19.8608 16.8581C19.78 16.2175 19.78 15.5687 19.8608 14.9281C19.8608 14.7673 19.8607 14.6065 19.9516 14.4456V14.0168L20.0425 13.7487V13.5209C20.0957 13.3791 20.1564 13.2404 20.2242 13.1054C20.5362 12.4919 20.9198 11.9203 21.3665 11.4033C21.8376 10.8554 22.3642 10.3612 22.9372 9.92907C23.08 9.82185 23.2228 9.70122 23.3785 9.60741L24.1055 9.19194L24.5858 8.91048L24.8324 8.77647L25.092 8.65585C25.7767 8.31848 26.4891 8.04488 27.2209 7.83831L27.7791 7.70428L28.0646 7.63726H28.3502L28.9344 7.53004H29.5185C31.1391 7.37106 32.7734 7.44775 34.3734 7.75788C36.0411 8.08003 37.6723 8.57855 39.2411 9.24554L39.8383 9.48679L40.4224 9.76823L41.0195 10.0497L41.3181 10.1837L41.6036 10.3445L42.7719 10.9611L43.9142 11.6446L44.4854 11.993L45.0436 12.3549L46.1599 13.092L47.2503 13.8694L47.7955 14.2714L48.3277 14.6869L49.3792 15.5178L50.4306 16.3622C50.7811 16.6436 51.1445 16.9117 51.508 17.1931L52.0532 17.5952L52.5984 17.9839C54.0556 19.0292 55.5729 19.9825 57.1417 20.8386C58.6953 21.6834 60.3149 22.3917 61.9835 22.9561C62.8109 23.2253 63.6515 23.449 64.5018 23.6262L65.1379 23.7469L65.774 23.8541C66.2024 23.8541 66.6307 23.9613 67.072 23.9881C67.5134 24.0149 67.9288 23.9881 68.3701 23.9881C68.8115 23.9881 69.2269 23.9881 69.6682 23.9881C70.5105 23.936 71.3479 23.8196 72.1735 23.6396C73.7795 23.2816 75.3242 22.6762 76.7557 21.8437C77.4537 21.4379 78.1141 20.9668 78.7288 20.4365C79.3371 19.9126 79.8858 19.3191 80.3644 18.6674C81.3081 17.3952 81.8761 15.8687 82 14.2714V13.99C82 13.8962 82 13.8023 82 13.7085C82 13.6147 82 13.3332 82 13.1456C81.9694 12.7764 81.9174 12.4094 81.8442 12.0466V11.4837L81.7014 11.0147L81.4678 10.4652L81.2082 9.98267C80.6858 9.13989 79.95 8.46082 79.0804 8.01903C78.2109 7.57724 77.2409 7.38959 76.2755 7.47644H75.8471L75.4447 7.57025H75.0423L74.6528 7.74448C74.1784 7.98716 73.7651 8.34047 73.4456 8.77647C73.1562 9.1758 72.9486 9.63182 72.8355 10.1167C72.7327 10.5323 72.7063 10.9642 72.7576 11.3899V11.6848C72.7576 11.7786 72.7577 11.8724 72.8226 11.9528V12.2075C72.8572 12.2944 72.8962 12.3794 72.9394 12.4621C73.218 12.9824 73.6846 13.3679 74.2374 13.5343C74.5613 13.6177 74.9001 13.6177 75.224 13.5343H75.5355H75.211C74.9035 13.5314 74.601 13.4533 74.3283 13.3065C74.0919 13.1826 73.8845 13.0069 73.7208 12.7916C73.5571 12.5763 73.4411 12.3266 73.3807 12.06V11.8724C73.3807 11.792 73.3807 11.725 73.3807 11.6446V11.4033C73.3923 11.0683 73.4581 10.7376 73.5754 10.4249C73.7036 10.0841 73.898 9.77399 74.1466 9.5136C74.4065 9.23776 74.7208 9.02292 75.0682 8.88369C75.1572 8.8467 75.2482 8.81536 75.3408 8.78986H76.0288C76.4696 8.79153 76.9076 8.86387 77.3269 9.00431C78.2607 9.3203 79.0503 9.97817 79.5466 10.8538L79.7283 11.2023L79.8582 11.5373L79.988 12.0064V12.4085C80.0394 12.701 80.074 12.9963 80.0918 13.293C80.0918 13.4405 80.0918 13.5879 80.0918 13.7487C80.0918 13.9095 80.0918 13.8962 80.0918 13.9766V14.2044C80.0995 14.3562 80.0995 14.5083 80.0918 14.6601L80.0139 15.1158C79.9423 15.4209 79.8512 15.7209 79.7413 16.0137C79.511 16.6234 79.2056 17.2 78.8327 17.7292C78.4502 18.2817 78.0153 18.7935 77.5346 19.2571C77.005 19.7578 76.4313 20.2064 75.8211 20.5973C73.1673 22.2415 70.1139 23.0692 67.0201 22.9829C65.3664 22.9481 63.723 22.7051 62.1263 22.2592C60.4751 21.7938 58.8711 21.1655 57.3364 20.3829C55.765 19.5874 54.2548 18.6688 52.8191 17.6354L52.2739 17.2467L51.7416 16.8447C51.3912 16.5766 51.0277 16.3086 50.6902 16.0137L48.6003 14.2982L48.0811 13.8694L47.5359 13.4539L46.4585 12.6229L45.3551 11.8322L44.7969 11.4435L44.2258 11.0683C42.731 10.0625 41.1694 9.16681 39.5527 8.38779C37.9462 7.60408 36.2676 6.98896 34.5421 6.55168C32.844 6.12355 31.0963 5.94311 29.3497 6.01559H28.7007L28.0516 6.09601H27.4026L26.7665 6.23002C25.9259 6.42893 25.1046 6.70709 24.3132 7.06097L24.0146 7.19498L23.7291 7.34241L23.1579 7.65068L22.6127 7.98574C22.4309 8.09296 22.2622 8.22696 22.0805 8.34758C21.3919 8.84363 20.7565 9.41424 20.1853 10.0497C19.6139 10.6826 19.1251 11.39 18.7314 12.1539C18.6246 12.358 18.5292 12.5683 18.4459 12.7837L18.3809 12.9446V13.0786L18.2901 13.3467V13.6415L18.2122 13.9498C18.2122 14.1508 18.1343 14.3518 18.1083 14.5663C17.8623 16.1572 18.0372 17.7872 18.6146 19.2839C19.1505 20.6908 20.0875 21.8966 21.3016 22.7417C21.8782 23.1282 22.5149 23.4093 23.1838 23.5726C23.3526 23.5726 23.5084 23.653 23.6771 23.6664H25.118C25.7193 23.5931 26.3036 23.4116 26.8444 23.1303C27.5146 22.7845 28.1112 22.3041 28.5993 21.7172C29.0874 21.1304 29.4573 20.449 29.6873 19.7128C29.8063 19.3164 29.8803 18.9071 29.9079 18.4931C29.9449 18.1368 29.9449 17.7773 29.9079 17.421C29.808 16.8741 29.6099 16.3514 29.3238 15.8797L29.155 15.6251L28.9863 15.4106L28.7137 15.1024L28.2853 14.8477Z" fill="#C09068"/>
<path d="M-712.285 14.8477L-712.467 15.1292C-712.467 15.223 -712.597 15.3436 -712.675 15.4776L-712.792 15.7055C-712.836 15.792 -712.875 15.8815 -712.908 15.9735C-713.093 16.442 -713.189 16.9422 -713.194 17.4478C-713.193 17.7584 -713.163 18.0681 -713.103 18.3725C-713.028 18.7154 -712.915 19.0482 -712.766 19.3643C-712.427 20.089 -711.923 20.7189 -711.299 21.2004C-710.597 21.7503 -709.751 22.068 -708.871 22.1118H-707.833L-707.482 22.018C-707.018 21.862 -706.58 21.6313 -706.184 21.3344C-705.307 20.6504 -704.64 19.7197 -704.263 18.654C-704.05 18.077 -703.915 17.4728 -703.861 16.8581C-703.78 16.2175 -703.78 15.5687 -703.861 14.9281C-703.861 14.7673 -703.861 14.6065 -703.952 14.4456V14.0168L-704.042 13.7487V13.5209C-704.096 13.3791 -704.156 13.2404 -704.224 13.1054C-704.536 12.4919 -704.92 11.9203 -705.367 11.4033C-705.838 10.8554 -706.364 10.3612 -706.937 9.92907C-707.08 9.82185 -707.223 9.70122 -707.379 9.60741L-708.105 9.19194L-708.586 8.91048L-708.832 8.77647L-709.092 8.65585C-709.777 8.31848 -710.489 8.04488 -711.221 7.83831L-711.779 7.70428L-712.065 7.63726H-712.35L-712.934 7.53004H-713.518C-715.139 7.37106 -716.773 7.44775 -718.373 7.75788C-720.041 8.08003 -721.672 8.57855 -723.241 9.24554L-723.838 9.48679L-724.422 9.76823L-725.02 10.0497L-725.318 10.1837L-725.604 10.3445L-726.772 10.9611L-727.914 11.6446L-728.485 11.993L-729.044 12.3549L-730.16 13.092L-731.25 13.8694L-731.796 14.2714L-732.328 14.6869L-733.379 15.5178L-734.431 16.3622C-734.781 16.6436 -735.145 16.9117 -735.508 17.1931L-736.053 17.5952L-736.598 17.9839C-738.056 19.0292 -739.573 19.9825 -741.142 20.8386C-742.695 21.6834 -744.315 22.3917 -745.984 22.9561C-746.811 23.2253 -747.652 23.449 -748.502 23.6262L-749.138 23.7469L-749.774 23.8541C-750.202 23.8541 -750.631 23.9613 -751.072 23.9881C-751.513 24.0149 -751.929 23.9881 -752.37 23.9881C-752.811 23.9881 -753.227 23.9881 -753.668 23.9881C-754.511 23.936 -755.348 23.8196 -756.174 23.6396C-757.779 23.2816 -759.324 22.6762 -760.756 21.8437C-761.454 21.4379 -762.114 20.9668 -762.729 20.4365C-763.337 19.9126 -763.886 19.3191 -764.364 18.6674C-765.308 17.3952 -765.876 15.8687 -766 14.2714V13.99C-766 13.8962 -766 13.8023 -766 13.7085C-766 13.6147 -766 13.3332 -766 13.1456C-765.969 12.7764 -765.917 12.4094 -765.844 12.0466V11.4837L-765.701 11.0147L-765.468 10.4652L-765.208 9.98267C-764.686 9.13989 -763.95 8.46082 -763.08 8.01903C-762.211 7.57724 -761.241 7.38959 -760.275 7.47644H-759.847L-759.445 7.57025H-759.042L-758.653 7.74448C-758.178 7.98716 -757.765 8.34047 -757.446 8.77647C-757.156 9.1758 -756.949 9.63182 -756.836 10.1167C-756.733 10.5323 -756.706 10.9642 -756.758 11.3899V11.6848C-756.758 11.7786 -756.758 11.8724 -756.823 11.9528V12.2075C-756.857 12.2944 -756.896 12.3794 -756.939 12.4621C-757.218 12.9824 -757.685 13.3679 -758.237 13.5343C-758.561 13.6177 -758.9 13.6177 -759.224 13.5343H-759.536H-759.211C-758.903 13.5314 -758.601 13.4533 -758.328 13.3065C-758.092 13.1826 -757.885 13.0069 -757.721 12.7916C-757.557 12.5763 -757.441 12.3266 -757.381 12.06V11.8724C-757.381 11.792 -757.381 11.725 -757.381 11.6446V11.4033C-757.392 11.0683 -757.458 10.7376 -757.575 10.4249C-757.704 10.0841 -757.898 9.77399 -758.147 9.5136C-758.406 9.23776 -758.721 9.02292 -759.068 8.88369C-759.157 8.8467 -759.248 8.81536 -759.341 8.78986H-760.029C-760.47 8.79153 -760.908 8.86387 -761.327 9.00431C-762.261 9.3203 -763.05 9.97817 -763.547 10.8538L-763.728 11.2023L-763.858 11.5373L-763.988 12.0064V12.4085C-764.039 12.701 -764.074 12.9963 -764.092 13.293C-764.092 13.4405 -764.092 13.5879 -764.092 13.7487C-764.092 13.9095 -764.092 13.8962 -764.092 13.9766V14.2044C-764.099 14.3562 -764.099 14.5083 -764.092 14.6601L-764.014 15.1158C-763.942 15.4209 -763.851 15.7209 -763.741 16.0137C-763.511 16.6234 -763.206 17.2 -762.833 17.7292C-762.45 18.2817 -762.015 18.7935 -761.535 19.2571C-761.005 19.7578 -760.431 20.2064 -759.821 20.5973C-757.167 22.2415 -754.114 23.0692 -751.02 22.9829C-749.366 22.9481 -747.723 22.7051 -746.126 22.2592C-744.475 21.7938 -742.871 21.1655 -741.336 20.3829C-739.765 19.5874 -738.255 18.6688 -736.819 17.6354L-736.274 17.2467L-735.742 16.8447C-735.391 16.5766 -735.028 16.3086 -734.69 16.0137L-732.6 14.2982L-732.081 13.8694L-731.536 13.4539L-730.458 12.6229L-729.355 11.8322L-728.797 11.4435L-728.226 11.0683C-726.731 10.0625 -725.169 9.16681 -723.553 8.38779C-721.946 7.60408 -720.268 6.98896 -718.542 6.55168C-716.844 6.12355 -715.096 5.94311 -713.35 6.01559H-712.701L-712.052 6.09601H-711.403L-710.767 6.23002C-709.926 6.42893 -709.105 6.70709 -708.313 7.06097L-708.015 7.19498L-707.729 7.34241L-707.158 7.65068L-706.613 7.98574C-706.431 8.09296 -706.262 8.22696 -706.08 8.34758C-705.392 8.84363 -704.756 9.41424 -704.185 10.0497C-703.614 10.6826 -703.125 11.39 -702.731 12.1539C-702.625 12.358 -702.529 12.5683 -702.446 12.7837L-702.381 12.9446V13.0786L-702.29 13.3467V13.6415L-702.212 13.9498C-702.212 14.1508 -702.134 14.3518 -702.108 14.5663C-701.862 16.1572 -702.037 17.7872 -702.615 19.2839C-703.15 20.6908 -704.087 21.8966 -705.302 22.7417C-705.878 23.1282 -706.515 23.4093 -707.184 23.5726C-707.353 23.5726 -707.508 23.653 -707.677 23.6664H-709.118C-709.719 23.5931 -710.304 23.4116 -710.844 23.1303C-711.515 22.7845 -712.111 22.3041 -712.599 21.7172C-713.087 21.1304 -713.457 20.449 -713.687 19.7128C-713.806 19.3164 -713.88 18.9071 -713.908 18.4931C-713.945 18.1368 -713.945 17.7773 -713.908 17.421C-713.808 16.8741 -713.61 16.3514 -713.324 15.8797L-713.155 15.6251L-712.986 15.4106L-712.714 15.1024L-712.285 14.8477Z" fill="#C09068"/>
<path d="M79.8757 17.2536C79.6642 17.5522 79.4316 17.8359 79.1796 18.1024C78.4764 18.8539 77.6895 19.5254 76.8338 20.1042C75.5145 21.0108 74.063 21.7156 72.5288 22.1946C71.5899 22.4853 70.6287 22.7014 69.6545 22.8407C69.3968 22.8407 69.139 22.9167 68.8683 22.9421L68.0563 23.0054C67.5149 23.0054 66.9478 23.0054 66.3807 23.0054C65.8136 23.0054 65.2335 23.0054 64.6406 22.9168C64.0477 22.8281 63.4548 22.8027 62.8361 22.6887C62.2174 22.5747 61.6117 22.4733 60.993 22.3466C60.6836 22.3466 60.3743 22.1946 60.0649 22.1186C59.7556 22.0426 59.4334 21.9666 59.124 21.8652L58.1702 21.5865H57.964L57.7191 21.4978L57.2422 21.3331C56.5848 21.1177 55.9533 20.8643 55.3346 20.6236C54.0457 20.0915 52.7568 19.5214 51.4678 18.8626L50.9909 18.6219L50.514 18.3558L49.5602 17.8364C48.9287 17.469 48.2713 17.1016 47.6655 16.7215C46.3766 15.9486 45.1521 15.1378 43.889 14.3017C41.3111 12.642 38.8235 10.8683 36.1555 9.23395C34.8665 8.42312 33.4616 7.63763 32.0567 6.94082C30.6493 6.23183 29.1885 5.63036 27.6873 5.14176C26.1956 4.65293 24.6587 4.30921 23.0987 4.11556C21.5646 3.96148 20.0185 3.96148 18.4844 4.11556L17.363 4.25492C17.1696 4.25492 16.9892 4.25493 16.8087 4.34361L16.2545 4.44497L15.7131 4.54633H15.4296L15.1718 4.60966C14.8367 4.68567 14.4629 4.79971 14.1149 4.90106C13.424 5.11244 12.7444 5.35767 12.0784 5.63586C11.4245 5.91624 10.7875 6.2335 10.1708 6.58606C8.97533 7.26972 7.88946 8.12359 6.94849 9.11991C6.06889 10.0687 5.35858 11.1567 4.84753 12.3379C4.38357 13.426 4.1049 14.5816 4.02264 15.7586C3.94944 16.8155 4.05394 17.8771 4.33197 18.9006C4.73477 20.5978 5.74022 22.0982 7.1676 23.1321C7.70624 23.4938 8.30986 23.7518 8.94635 23.8923C9.4114 23.994 9.88971 24.0239 10.3641 23.981C10.6512 23.958 10.9357 23.9113 11.2148 23.8416L11.4984 23.7656C11.5328 23.761 11.5648 23.7461 11.5901 23.7229C11.6155 23.6997 11.6329 23.6693 11.64 23.636C11.6471 23.6026 11.6435 23.5679 11.6296 23.5367C11.6158 23.5055 11.5925 23.4792 11.5629 23.4615H11.2922C11.0262 23.4811 10.759 23.4811 10.493 23.4615C9.51006 23.4204 8.56995 23.0543 7.82495 22.4226C6.69907 21.4286 5.94935 20.0888 5.69824 18.6219C5.34345 16.7095 5.61421 14.7358 6.47162 12.984C6.9563 11.9937 7.60044 11.0867 8.37921 10.2982C9.22478 9.45105 10.1881 8.72593 11.2406 8.14439C12.3724 7.52421 13.5695 7.02718 14.8109 6.66209C15.1331 6.57341 15.4296 6.48471 15.7776 6.39603L16.0354 6.33268H16.2803L17.2856 6.12998L17.7883 6.04129L18.8195 5.90193C20.2208 5.76202 21.6329 5.76202 23.0342 5.90193C24.4751 6.07327 25.8954 6.38303 27.2748 6.82678C28.6952 7.2799 30.0784 7.83898 31.4122 8.49913C32.7656 9.15793 34.0932 9.89274 35.4079 10.6656C37.9857 12.2239 40.5636 13.9469 43.1414 15.5939C44.4303 16.4174 45.7193 17.2156 47.0082 17.9631C47.6526 18.3432 48.2971 18.6979 48.9673 19.0653L49.9469 19.5847L50.4367 19.8381L50.9394 20.0788C52.232 20.7192 53.557 21.2943 54.9092 21.8019C55.5795 22.0426 56.1981 22.2833 56.907 22.4733L57.6418 22.7014H57.848L58.8405 22.9548C59.1627 23.0435 59.4978 23.1068 59.8201 23.1828C60.1423 23.2588 60.4645 23.3348 60.7867 23.3855C61.4312 23.4995 62.0756 23.6136 62.7072 23.6769C63.3388 23.7403 63.9962 23.8036 64.5762 23.8416C65.1562 23.8796 65.8007 23.8416 66.3936 23.8416C66.9865 23.8416 67.5665 23.8416 68.1336 23.7403L68.9714 23.6389C69.242 23.6389 69.5127 23.5502 69.7834 23.4995C70.7887 23.317 71.7762 23.05 72.735 22.7014C74.2925 22.1376 75.753 21.3429 77.0658 20.3449C77.9025 19.7042 78.6634 18.9733 79.3343 18.1658C79.5743 17.8812 79.7939 17.5807 79.9916 17.2663C80.0002 17.2511 80.0023 17.2333 79.9974 17.2167C79.9926 17.2 79.9813 17.186 79.9659 17.1776C79.9505 17.1692 79.9323 17.1671 79.9154 17.1719C79.8985 17.1766 79.8842 17.1878 79.8757 17.2029V17.2536Z" fill="#C09068"/>
<path d="M-763.876 17.2536C-763.664 17.5522 -763.432 17.8359 -763.18 18.1024C-762.476 18.8539 -761.69 19.5254 -760.834 20.1042C-759.514 21.0108 -758.063 21.7156 -756.529 22.1946C-755.59 22.4853 -754.629 22.7014 -753.655 22.8407C-753.397 22.8407 -753.139 22.9167 -752.868 22.9421L-752.056 23.0054C-751.515 23.0054 -750.948 23.0054 -750.381 23.0054C-749.814 23.0054 -749.233 23.0054 -748.641 22.9168C-748.048 22.8281 -747.455 22.8027 -746.836 22.6887C-746.217 22.5747 -745.612 22.4733 -744.993 22.3466C-744.684 22.3466 -744.374 22.1946 -744.065 22.1186C-743.756 22.0426 -743.433 21.9666 -743.124 21.8652L-742.17 21.5865H-741.964L-741.719 21.4978L-741.242 21.3331C-740.585 21.1177 -739.953 20.8643 -739.335 20.6236C-738.046 20.0915 -736.757 19.5214 -735.468 18.8626L-734.991 18.6219L-734.514 18.3558L-733.56 17.8364C-732.929 17.469 -732.271 17.1016 -731.666 16.7215C-730.377 15.9486 -729.152 15.1378 -727.889 14.3017C-725.311 12.642 -722.824 10.8683 -720.155 9.23395C-718.867 8.42312 -717.462 7.63763 -716.057 6.94082C-714.649 6.23183 -713.189 5.63036 -711.687 5.14176C-710.196 4.65293 -708.659 4.30921 -707.099 4.11556C-705.565 3.96148 -704.018 3.96148 -702.484 4.11556L-701.363 4.25492C-701.17 4.25492 -700.989 4.25493 -700.809 4.34361L-700.255 4.44497L-699.713 4.54633H-699.43L-699.172 4.60966C-698.837 4.68567 -698.463 4.79971 -698.115 4.90106C-697.424 5.11244 -696.744 5.35767 -696.078 5.63586C-695.424 5.91624 -694.788 6.2335 -694.171 6.58606C-692.975 7.26972 -691.889 8.12359 -690.948 9.11991C-690.069 10.0687 -689.359 11.1567 -688.848 12.3379C-688.384 13.426 -688.105 14.5816 -688.023 15.7586C-687.949 16.8155 -688.054 17.8771 -688.332 18.9006C-688.735 20.5978 -689.74 22.0982 -691.168 23.1321C-691.706 23.4938 -692.31 23.7518 -692.946 23.8923C-693.411 23.994 -693.89 24.0239 -694.364 23.981C-694.651 23.958 -694.936 23.9113 -695.215 23.8416L-695.498 23.7656C-695.533 23.761 -695.565 23.7461 -695.59 23.7229C-695.616 23.6997 -695.633 23.6693 -695.64 23.636C-695.647 23.6026 -695.643 23.5679 -695.63 23.5367C-695.616 23.5055 -695.592 23.4792 -695.563 23.4615H-695.292C-695.026 23.4811 -694.759 23.4811 -694.493 23.4615C-693.51 23.4204 -692.57 23.0543 -691.825 22.4226C-690.699 21.4286 -689.949 20.0888 -689.698 18.6219C-689.343 16.7095 -689.614 14.7358 -690.472 12.984C-690.956 11.9937 -691.6 11.0867 -692.379 10.2982C-693.225 9.45105 -694.188 8.72593 -695.241 8.14439C-696.372 7.52421 -697.57 7.02718 -698.811 6.66209C-699.133 6.57341 -699.43 6.48471 -699.778 6.39603L-700.035 6.33268H-700.28L-701.286 6.12998L-701.788 6.04129L-702.819 5.90193C-704.221 5.76202 -705.633 5.76202 -707.034 5.90193C-708.475 6.07327 -709.895 6.38303 -711.275 6.82678C-712.695 7.2799 -714.078 7.83898 -715.412 8.49913C-716.766 9.15793 -718.093 9.89274 -719.408 10.6656C-721.986 12.2239 -724.564 13.9469 -727.141 15.5939C-728.43 16.4174 -729.719 17.2156 -731.008 17.9631C-731.653 18.3432 -732.297 18.6979 -732.967 19.0653L-733.947 19.5847L-734.437 19.8381L-734.939 20.0788C-736.232 20.7192 -737.557 21.2943 -738.909 21.8019C-739.579 22.0426 -740.198 22.2833 -740.907 22.4733L-741.642 22.7014H-741.848L-742.84 22.9548C-743.163 23.0435 -743.498 23.1068 -743.82 23.1828C-744.142 23.2588 -744.465 23.3348 -744.787 23.3855C-745.431 23.4995 -746.076 23.6136 -746.707 23.6769C-747.339 23.7403 -747.996 23.8036 -748.576 23.8416C-749.156 23.8796 -749.801 23.8416 -750.394 23.8416C-750.986 23.8416 -751.566 23.8416 -752.134 23.7403L-752.971 23.6389C-753.242 23.6389 -753.513 23.5502 -753.783 23.4995C-754.789 23.317 -755.776 23.05 -756.735 22.7014C-758.292 22.1376 -759.753 21.3429 -761.066 20.3449C-761.903 19.7042 -762.663 18.9733 -763.334 18.1658C-763.574 17.8812 -763.794 17.5807 -763.992 17.2663C-764 17.2511 -764.002 17.2333 -763.997 17.2167C-763.993 17.2 -763.981 17.186 -763.966 17.1776C-763.951 17.1692 -763.932 17.1671 -763.915 17.1719C-763.898 17.1766 -763.884 17.1878 -763.876 17.2029V17.2536Z" fill="#C09068"/>
</g>
<defs>
<clipPath id="clip0">
<rect width="207" height="99" fill="white" transform="translate(-79 -36)"/>
</clipPath>
</defs>
</svg>
