<svg width="512" height="279" viewBox="0 0 512 279" fill="none" xmlns="http://www.w3.org/2000/svg">
<path fill-rule="evenodd" clip-rule="evenodd" d="M23.9941 5.9418L2.49435 0.572754L0.910156 6.92415L2.12963 7.22793C2.78501 6.24677 3.56128 5.35205 4.44005 4.56487C4.73826 4.20532 5.10507 3.90877 5.51902 3.69249C5.93296 3.47621 6.38577 3.34454 6.8511 3.30516C7.19436 3.34698 7.61408 3.41302 8.11026 3.50328C8.60534 3.59408 9.03113 3.68324 9.38594 3.77239L10.1186 3.95565L5.73547 21.5223C5.65813 21.8692 5.50359 22.1943 5.28332 22.4733C5.02386 22.7484 4.67041 22.9158 4.2932 22.9421C3.90189 22.9689 3.5088 22.9461 3.12318 22.8744L1.81607 22.6895L1.51078 23.9096L13.8878 26.9986L14.1915 25.7786C13.8483 25.6487 13.4362 25.4709 12.9554 25.2453C12.5916 25.0852 12.2416 24.8953 11.9092 24.6773C11.5965 24.4735 11.3721 24.1593 11.2805 23.7974C11.2215 23.4499 11.2395 23.0937 11.3332 22.7539L15.6784 5.34249L16.4112 5.52575C16.7643 5.6138 17.1813 5.73488 17.6621 5.88897C18.144 6.04251 18.5449 6.1812 18.8684 6.30667C19.2604 6.56042 19.5982 6.88959 19.8619 7.27505C20.1257 7.66052 20.3102 8.09459 20.4048 8.55203C20.8109 9.66027 21.0764 10.8151 21.1953 11.9894L22.4149 12.2932L23.9941 5.9418ZM85.8613 46.038C85.5204 45.9064 85.1894 45.7502 84.871 45.5707C84.5416 45.3927 84.2411 45.1656 83.9799 44.8971C83.7038 44.608 83.4803 44.2728 83.3198 43.9065C83.1894 43.5897 83.1033 43.2563 83.064 42.9159C82.8341 40.7806 82.5838 38.0994 82.3131 34.8723C82.0425 31.6451 81.6514 27.249 81.1398 21.6841L78.0538 20.7513C75.5465 23.8111 73.2559 26.6107 71.1821 29.1499L64.9671 36.7527C64.6503 37.1616 64.2723 37.5191 63.8466 37.8127C63.4366 38.0876 62.9805 38.2861 62.5 38.3988C62.1327 38.4831 61.7535 38.5027 61.3794 38.4566C60.9762 38.4232 60.5758 38.3614 60.1813 38.2717L59.8183 39.4752L68.7958 42.1911L69.1588 40.9876C68.3191 40.694 67.5307 40.2706 66.8221 39.7328C66.6443 39.623 66.5026 39.4634 66.4146 39.2738C66.3265 39.0842 66.2961 38.873 66.3269 38.6662C66.3893 38.4877 66.4621 38.3129 66.5448 38.1429C66.7538 37.7417 66.9955 37.3585 67.2676 36.9971C67.5547 36.6008 67.8881 36.1518 68.2677 35.6499C68.6472 35.148 68.9883 34.7121 69.2908 34.3423L76.8491 36.6273L77.3442 41.7305C77.3808 41.9787 77.3616 42.2319 77.2881 42.4718C77.1156 42.6307 76.9023 42.7386 76.6722 42.7835C76.442 42.8284 76.204 42.8085 75.9844 42.7261C75.2966 42.6748 74.6129 42.5777 73.938 42.4355L73.575 43.6391L85.4999 47.2448L85.8613 46.038ZM70.3817 32.9951L75.8953 26.0229L76.6726 34.897L70.3817 32.9951ZM154.785 46.7116L133.93 39.2127L131.717 45.3726L132.901 45.7986C133.652 44.8882 134.516 44.0761 135.47 43.3815C135.803 43.054 136.198 42.796 136.631 42.6225C137.065 42.449 137.528 42.3636 137.995 42.3711C138.332 42.447 138.743 42.5571 139.228 42.7013C139.713 42.8455 140.127 42.977 140.47 43.0959L141.18 43.3518L135.059 60.3901C134.948 60.7275 134.761 61.0352 134.513 61.2899C134.23 61.5362 133.865 61.6675 133.49 61.6581C133.098 61.6452 132.71 61.5831 132.335 61.4731L131.052 61.1578L130.627 62.3416L142.622 66.6556L143.048 65.4719C142.718 65.3079 142.325 65.0877 141.87 64.8115C141.522 64.6156 141.191 64.3914 140.88 64.1412C140.59 63.907 140.398 63.5722 140.343 63.2034C140.316 62.852 140.367 62.4988 140.494 62.1699L146.56 45.2835L147.271 45.5394C147.614 45.6626 148.018 45.8244 148.481 46.0248C148.944 46.2251 149.329 46.4039 149.636 46.5613C150.001 46.853 150.304 47.2143 150.527 47.6241C150.751 48.0339 150.891 48.4842 150.94 48.9487C151.233 50.0923 151.382 51.2682 151.382 52.4488L152.565 52.8747L154.785 46.7116ZM212.214 93.0369C211.89 92.8704 211.579 92.6806 211.282 92.469C210.973 92.2573 210.698 91.9995 210.467 91.7046C210.223 91.3897 210.035 91.035 209.912 90.6562C209.816 90.3257 209.766 89.9834 209.764 89.6392C209.764 87.4907 209.797 84.7985 209.864 81.5625C209.932 78.3265 210.004 73.9118 210.081 68.3182L207.11 67.0651C204.294 69.8432 201.72 72.3851 199.388 74.691L192.409 81.5972C192.051 81.9697 191.638 82.2849 191.183 82.5316C190.747 82.7621 190.272 82.9115 189.782 82.9725C189.409 83.0176 189.03 82.9969 188.663 82.9114C188.266 82.8356 187.873 82.7319 187.49 82.601L186.995 83.7567L195.637 87.4054L196.133 86.2497C195.328 85.8695 194.588 85.3653 193.939 84.7555C193.775 84.6271 193.651 84.4533 193.584 84.2556C193.517 84.0579 193.509 83.8449 193.561 83.6428C193.642 83.4725 193.733 83.3071 193.834 83.1475C194.084 82.7707 194.365 82.4151 194.674 82.0842C195.004 81.721 195.383 81.3093 195.811 80.8493C196.239 80.3892 196.624 79.9919 196.966 79.6572L204.24 82.7281L204.196 87.8462C204.198 87.9987 204.184 88.151 204.153 88.3002C204.13 88.3948 204.099 88.4875 204.062 88.5776C203.874 88.7169 203.651 88.8014 203.418 88.8218C203.185 88.8422 202.951 88.7977 202.742 88.6932C202.064 88.5695 201.394 88.4007 200.738 88.188L200.243 89.3437L211.721 94.1893L212.214 93.0369ZM198.197 78.4388L204.415 72.0957L204.25 81.0028L198.197 78.4388ZM278.258 101.668C276.906 99.8059 275.064 98.3553 272.936 97.4781L261.612 91.9077L261.058 93.0369C261.266 93.1745 261.571 93.3996 261.973 93.7122C262.308 93.9615 262.618 94.243 262.898 94.5526C263.164 94.8161 263.325 95.1688 263.348 95.5432C263.335 95.8786 263.247 96.2069 263.091 96.504L255.973 110.987C255.832 111.313 255.614 111.6 255.338 111.824C255.029 112.004 254.668 112.074 254.315 112.022C253.949 111.973 253.592 111.879 253.25 111.741C252.762 111.566 252.371 111.425 252.077 111.317L251.522 112.446L262.643 117.917L263.198 116.79C262.913 116.613 262.576 116.375 262.183 116.075C261.889 115.862 261.613 115.625 261.358 115.367C261.099 115.103 260.942 114.755 260.916 114.386C260.917 114.037 261.003 113.694 261.165 113.385L264.002 107.607L265.68 108.432C266.934 109.066 268.252 109.564 269.611 109.918C270.768 110.219 271.968 110.318 273.159 110.209C274.223 110.111 275.245 109.746 276.13 109.147C277.078 108.475 277.832 107.564 278.315 106.506C278.735 105.768 278.951 104.931 278.941 104.082C278.93 103.233 278.694 102.402 278.255 101.675L278.258 101.668ZM269.429 107.226C268.011 107.515 266.535 107.272 265.284 106.544L264.677 106.245L269.108 97.2305L270.307 97.8215C270.942 98.0497 271.519 98.4147 271.997 98.8905C272.476 99.3664 272.843 99.9416 273.075 100.575C273.281 101.922 273.014 103.298 272.319 104.47C272.067 105.114 271.678 105.694 271.178 106.171C270.678 106.648 270.08 107.01 269.426 107.232L269.429 107.226ZM324.296 150.959C325.326 151.177 326.383 151.241 327.432 151.147C328.37 151.063 329.29 150.841 330.163 150.487C331.088 150.108 331.969 149.63 332.792 149.062L332.001 147.647C330.597 148.519 329.021 149.076 327.38 149.28C325.952 149.407 324.52 149.084 323.285 148.355C322.436 147.886 321.697 147.24 321.119 146.462C320.559 145.677 320.206 144.763 320.094 143.805C319.994 142.663 320.1 141.512 320.408 140.407C320.825 138.893 321.442 137.442 322.245 136.092C323.407 133.767 325.159 131.789 327.326 130.354C328.121 129.851 329.041 129.581 329.982 129.573C330.923 129.566 331.847 129.821 332.65 130.312C333.329 130.685 333.92 131.2 334.385 131.82C334.849 132.441 335.176 133.154 335.343 133.911C335.716 136.012 335.625 138.169 335.077 140.231L336.31 140.932L340.317 133.604L339.097 132.91L337.79 133.186C337.273 132.389 336.678 131.646 336.013 130.967C335.194 130.129 334.258 129.414 333.234 128.845C331.776 128 330.172 127.436 328.506 127.181C326.946 126.936 325.351 127.017 323.824 127.421C322.292 127.837 320.861 128.56 319.618 129.547C316.981 131.689 315.24 134.74 314.738 138.101C314.527 139.61 314.639 141.146 315.068 142.608C315.505 144.057 316.235 145.401 317.213 146.556C318.249 147.781 319.497 148.81 320.898 149.594C321.951 150.225 323.097 150.688 324.293 150.966L324.296 150.959ZM398.71 170.256L380.216 158.038L376.611 163.502L377.661 164.195C378.605 163.487 379.636 162.901 380.727 162.452C381.128 162.212 381.572 162.054 382.034 161.988C382.496 161.922 382.967 161.948 383.419 162.065C383.729 162.219 384.102 162.42 384.541 162.671C384.98 162.922 385.35 163.148 385.655 163.348L386.285 163.766L376.318 178.877C376.129 179.179 375.874 179.434 375.573 179.624C375.24 179.796 374.855 179.837 374.492 179.739C374.115 179.635 373.751 179.483 373.412 179.287L372.24 178.678L371.547 179.728L382.188 186.751L382.879 185.701C382.599 185.465 382.269 185.159 381.889 184.788C381.6 184.515 381.333 184.219 381.092 183.903C380.865 183.607 380.758 183.236 380.792 182.864C380.848 182.516 380.981 182.185 381.181 181.895L391.061 166.931L391.692 167.347C391.995 167.548 392.348 167.801 392.751 168.105C393.154 168.408 393.487 168.673 393.75 168.899C394.035 169.268 394.244 169.691 394.365 170.142C394.486 170.593 394.516 171.064 394.453 171.527C394.469 172.707 394.336 173.885 394.058 175.032L395.106 175.726L398.71 170.256ZM443.124 229.606C442.853 229.362 442.6 229.098 442.368 228.817C442.123 228.534 441.923 228.215 441.774 227.871C441.619 227.504 441.528 227.113 441.505 226.715C441.497 226.371 441.536 226.028 441.622 225.695C442.172 223.618 442.892 221.023 443.781 217.912C444.67 214.8 445.866 210.551 447.37 205.163L444.821 203.192C441.388 205.157 438.252 206.958 435.414 208.592L426.894 213.489C426.453 213.759 425.973 213.958 425.471 214.08C424.99 214.192 424.492 214.215 424.002 214.149C423.629 214.097 423.269 213.979 422.936 213.803C422.571 213.628 422.219 213.428 421.882 213.203L421.114 214.194L428.541 219.929L429.31 218.939C428.629 218.365 428.042 217.689 427.572 216.933C427.445 216.767 427.369 216.568 427.355 216.359C427.34 216.151 427.387 215.943 427.489 215.761C427.611 215.616 427.741 215.478 427.879 215.348C428.218 215.048 428.58 214.777 428.963 214.536C429.372 214.268 429.844 213.967 430.377 213.633C430.911 213.298 431.385 213.012 431.8 212.776L438.048 217.602L436.696 222.555C436.643 222.799 436.535 223.029 436.381 223.226C436.163 223.314 435.926 223.339 435.695 223.299C435.464 223.259 435.248 223.156 435.072 223C434.445 222.708 433.839 222.374 433.257 222L432.488 222.99L442.348 230.608L443.124 229.606ZM433.297 211.911L440.931 207.359L438.498 215.927L433.297 211.911ZM496.938 277.092C496.668 276.791 496.413 276.476 496.175 276.149C495.937 275.845 495.73 275.517 495.56 275.17C495.398 274.843 495.351 274.471 495.426 274.114C495.529 273.789 495.708 273.494 495.949 273.253L507.062 261.467C507.292 261.218 507.574 261.023 507.887 260.896C508.059 260.836 508.241 260.812 508.422 260.826C508.603 260.84 508.779 260.892 508.939 260.978C509.294 261.155 509.637 261.357 509.965 261.581C510.327 261.825 510.638 262.058 510.904 262.278L511.766 261.363L502.775 252.878L501.912 253.793C502.15 254.089 502.371 254.399 502.572 254.721C502.793 255.046 502.982 255.392 503.138 255.753C503.298 256.084 503.349 256.459 503.283 256.821C503.19 257.136 503.02 257.423 502.788 257.656L498.21 262.512L491.106 255.807L495.794 250.834C496.023 250.59 496.301 250.395 496.609 250.263C496.782 250.2 496.967 250.175 497.15 250.189C497.333 250.204 497.512 250.258 497.672 250.347C497.995 250.515 498.309 250.7 498.613 250.901C498.952 251.115 499.278 251.349 499.59 251.602L500.453 250.688L491.461 242.201L490.599 243.118C490.835 243.405 491.056 243.705 491.259 244.016C491.505 244.366 491.717 244.74 491.89 245.132C492.051 245.461 492.101 245.835 492.03 246.195C491.93 246.507 491.756 246.79 491.523 247.021L480.422 258.796C480.188 259.055 479.894 259.254 479.565 259.373C479.225 259.475 478.859 259.443 478.542 259.284C478.196 259.112 477.869 258.903 477.567 258.662C477.148 258.346 476.836 258.102 476.633 257.926L475.771 258.84L484.764 267.325L485.625 266.41C485.354 266.106 485.101 265.786 484.868 265.452C484.649 265.164 484.456 264.856 484.293 264.533C484.136 264.21 484.095 263.842 484.178 263.493C484.271 263.163 484.444 262.863 484.683 262.618L489.964 257.004L497.06 263.709L491.662 269.458C491.432 269.721 491.137 269.92 490.807 270.036C490.461 270.119 490.096 270.083 489.772 269.935C489.443 269.783 489.138 269.584 488.865 269.345L487.944 268.607L487.081 269.522L496.073 278.008L496.938 277.092Z" fill="#C09068"/>
</svg>
